<mxfile host="Electron" agent="Mozilla/5.0 (X11; Linux x86_64) AppleWebKit/537.36 (KHTML, like Gecko) draw.io/26.0.4 Chrome/128.0.6613.186 Electron/32.2.5 Safari/537.36" version="26.0.4">
  <diagram name="Page-1" id="MrPx6simTw7nMhc1-APt">
    <mxGraphModel dx="1114" dy="1198" grid="1" gridSize="10" guides="1" tooltips="1" connect="1" arrows="1" fold="1" page="1" pageScale="1" pageWidth="850" pageHeight="1100" math="0" shadow="0">
      <root>
        <mxCell id="0" />
        <mxCell id="1" parent="0" />
        <mxCell id="glu5d7UKlCDAGFVuB5Aq-3" style="edgeStyle=orthogonalEdgeStyle;rounded=0;orthogonalLoop=1;jettySize=auto;html=1;startArrow=classic;startFill=1;" parent="1" source="glu5d7UKlCDAGFVuB5Aq-1" target="glu5d7UKlCDAGFVuB5Aq-2" edge="1">
          <mxGeometry relative="1" as="geometry" />
        </mxCell>
        <mxCell id="glu5d7UKlCDAGFVuB5Aq-1" value="On-prem AD" style="sketch=0;outlineConnect=0;fontColor=#232F3E;gradientColor=none;fillColor=#232F3D;strokeColor=none;dashed=0;verticalLabelPosition=bottom;verticalAlign=top;align=center;html=1;fontSize=12;fontStyle=1;aspect=fixed;pointerEvents=1;shape=mxgraph.aws4.traditional_server;" parent="1" vertex="1">
          <mxGeometry x="280" y="394" width="45" height="78" as="geometry" />
        </mxCell>
        <mxCell id="glu5d7UKlCDAGFVuB5Aq-2" value="AWS Managed AD" style="sketch=0;outlineConnect=0;fontColor=#232F3E;gradientColor=none;fillColor=#BF0816;strokeColor=none;dashed=0;verticalLabelPosition=bottom;verticalAlign=top;align=center;html=1;fontSize=12;fontStyle=0;aspect=fixed;pointerEvents=1;shape=mxgraph.aws4.ad_connector;" parent="1" vertex="1">
          <mxGeometry x="490" y="396.5" width="78" height="73" as="geometry" />
        </mxCell>
        <mxCell id="glu5d7UKlCDAGFVuB5Aq-5" value="trust" style="text;html=1;align=center;verticalAlign=middle;resizable=0;points=[];autosize=1;strokeColor=none;fillColor=none;" parent="1" vertex="1">
          <mxGeometry x="380" y="412" width="50" height="30" as="geometry" />
        </mxCell>
        <mxCell id="glu5d7UKlCDAGFVuB5Aq-6" value="" style="edgeStyle=none;orthogonalLoop=1;jettySize=auto;html=1;endArrow=classic;startArrow=classic;endSize=8;startSize=8;rounded=0;" parent="1" edge="1">
          <mxGeometry width="100" relative="1" as="geometry">
            <mxPoint x="180" y="432.5" as="sourcePoint" />
            <mxPoint x="280" y="432.5" as="targetPoint" />
            <Array as="points" />
          </mxGeometry>
        </mxCell>
        <mxCell id="glu5d7UKlCDAGFVuB5Aq-8" value="auth" style="text;html=1;align=center;verticalAlign=middle;resizable=0;points=[];autosize=1;strokeColor=none;fillColor=none;" parent="1" vertex="1">
          <mxGeometry x="210" y="411" width="50" height="30" as="geometry" />
        </mxCell>
        <mxCell id="glu5d7UKlCDAGFVuB5Aq-10" value="" style="edgeStyle=none;orthogonalLoop=1;jettySize=auto;html=1;endArrow=classic;startArrow=classic;endSize=8;startSize=8;rounded=0;" parent="1" edge="1">
          <mxGeometry width="100" relative="1" as="geometry">
            <mxPoint x="570" y="432.5" as="sourcePoint" />
            <mxPoint x="670" y="432.5" as="targetPoint" />
            <Array as="points" />
          </mxGeometry>
        </mxCell>
        <mxCell id="glu5d7UKlCDAGFVuB5Aq-11" value="auth" style="text;html=1;align=center;verticalAlign=middle;resizable=0;points=[];autosize=1;strokeColor=none;fillColor=none;" parent="1" vertex="1">
          <mxGeometry x="600" y="411" width="50" height="30" as="geometry" />
        </mxCell>
        <mxCell id="glu5d7UKlCDAGFVuB5Aq-12" style="edgeStyle=orthogonalEdgeStyle;rounded=0;orthogonalLoop=1;jettySize=auto;html=1;startArrow=classic;startFill=1;" parent="1" source="glu5d7UKlCDAGFVuB5Aq-13" target="glu5d7UKlCDAGFVuB5Aq-14" edge="1">
          <mxGeometry relative="1" as="geometry" />
        </mxCell>
        <mxCell id="glu5d7UKlCDAGFVuB5Aq-13" value="On-prem AD" style="sketch=0;outlineConnect=0;fontColor=#232F3E;gradientColor=none;fillColor=#232F3D;strokeColor=none;dashed=0;verticalLabelPosition=bottom;verticalAlign=top;align=center;html=1;fontSize=12;fontStyle=1;aspect=fixed;pointerEvents=1;shape=mxgraph.aws4.traditional_server;" parent="1" vertex="1">
          <mxGeometry x="280" y="514" width="45" height="78" as="geometry" />
        </mxCell>
        <mxCell id="glu5d7UKlCDAGFVuB5Aq-14" value="AD Connector" style="sketch=0;outlineConnect=0;fontColor=#232F3E;gradientColor=none;fillColor=#BF0816;strokeColor=none;dashed=0;verticalLabelPosition=bottom;verticalAlign=top;align=center;html=1;fontSize=12;fontStyle=0;aspect=fixed;pointerEvents=1;shape=mxgraph.aws4.ad_connector;" parent="1" vertex="1">
          <mxGeometry x="490" y="516.5" width="78" height="73" as="geometry" />
        </mxCell>
        <mxCell id="glu5d7UKlCDAGFVuB5Aq-15" value="proxy" style="text;html=1;align=center;verticalAlign=middle;resizable=0;points=[];autosize=1;strokeColor=none;fillColor=none;" parent="1" vertex="1">
          <mxGeometry x="380" y="532" width="50" height="30" as="geometry" />
        </mxCell>
        <mxCell id="glu5d7UKlCDAGFVuB5Aq-18" value="" style="edgeStyle=none;orthogonalLoop=1;jettySize=auto;html=1;endArrow=classic;startArrow=classic;endSize=8;startSize=8;rounded=0;" parent="1" edge="1">
          <mxGeometry width="100" relative="1" as="geometry">
            <mxPoint x="570" y="552.5" as="sourcePoint" />
            <mxPoint x="670" y="552.5" as="targetPoint" />
            <Array as="points" />
          </mxGeometry>
        </mxCell>
        <mxCell id="glu5d7UKlCDAGFVuB5Aq-19" value="auth" style="text;html=1;align=center;verticalAlign=middle;resizable=0;points=[];autosize=1;strokeColor=none;fillColor=none;" parent="1" vertex="1">
          <mxGeometry x="600" y="531" width="50" height="30" as="geometry" />
        </mxCell>
        <mxCell id="glu5d7UKlCDAGFVuB5Aq-20" value="Simple AD" style="sketch=0;outlineConnect=0;fontColor=#232F3E;gradientColor=none;fillColor=#BF0816;strokeColor=none;dashed=0;verticalLabelPosition=bottom;verticalAlign=top;align=center;html=1;fontSize=12;fontStyle=0;aspect=fixed;pointerEvents=1;shape=mxgraph.aws4.ad_connector;" parent="1" vertex="1">
          <mxGeometry x="490" y="634" width="78" height="73" as="geometry" />
        </mxCell>
      </root>
    </mxGraphModel>
  </diagram>
</mxfile>
